<svg height="512pt" viewBox="0 -53 512.05742 512" width="512pt" xmlns="http://www.w3.org/2000/svg"><path d="m452.695312 12.28125c-2.34375-4.691406-7.679687-7.039062-12.796874-5.332031l-417.496094 132.265625c-13.652344 4.480468-22.613282 16.425781-22.39843775 30.71875 0 14.507812 9.17187475 26.453125 24.10546875 30.933594l76.160156 15.789062c1.707031.425781 3.414063.851562 5.121094 1.066406 6.1875 1.277344 12.160156 2.34375 18.558594 33.277344.640625 3.628906 3.203125 6.613281 6.613281 7.894531 1.28125.425781 2.5625.640625 3.839844.640625 2.347656 0 4.480468-.640625 6.402344-2.132812l308.265624-230.402344c2.132813-1.277344 3.625-3.839844 4.480469-6.183594.851563-2.773437.425781-5.976562-.855469-8.535156zm0 0" fill="#43a047"/><g fill="#8bc34a"><path d="m85.335938 362.789062c0 23.5625-19.101563 42.664063-42.664063 42.664063-23.566406 0-42.66796875-19.101563-42.66796875-42.664063 0-23.566406 19.10156275-42.667968 42.66796875-42.667968 23.5625 0 42.664063 19.101562 42.664063 42.667968zm0 0"/><path d="m128.003906 192.121094c-23.464844 0-42.667968 19.199218-42.667968 42.667968 0 16.210938 9.175781 30.71875 23.679687 38.1875 1.496094.851563 3.203125 1.066407 4.695313 1.066407 2.347656 0 4.480468-.640625 6.398437-2.132813l45.441406-34.773437c3.625-2.5625 5.121094-6.613281 4.265625-10.457031-3.839844-20.050782-21.546875-34.558594-41.8125-34.558594zm0 0"/><path d="m202.671875 138.789062c-23.46875 0-42.667969 19.199219-42.667969 42.664063 0 14.722656 7.464844 28.160156 20.054688 36.054687 1.707031 1.066407 3.625 1.707032 5.757812 1.707032 2.347656 0 4.480469-.640625 6.402344-2.132813l47.359375-36.054687c3.625-2.773438 5.117187-7.253906 3.839844-11.519532-5.335938-18.347656-21.761719-30.71875-40.746094-30.71875zm0 0"/><path d="m316.804688 112.121094c-6.402344-16.210938-21.972657-26.667969-39.46875-26.667969-23.464844 0-42.664063 19.203125-42.664063 42.667969 0 13.226562 6.183594 25.601562 16.851563 33.921875 1.921874 1.492187 4.265624 2.132812 6.398437 2.132812 2.136719 0 4.480469-.640625 6.402344-2.132812l48.851562-37.335938c4.054688-2.984375 5.546875-8.105469 3.628907-12.585937zm0 0"/></g><path d="m487.46875 5.882812c-16-8.746093-35.199219-7.46875-48.425781 2.34375-.640625.214844-2.132813 1.28125-2.773438 1.707032l-338.132812 252.589844c-11.304688 8.746093-15.574219 23.039062-10.878907 36.265624 4.691407 13.011719 16.425782 21.332032 30.292969 21.332032h1.066407l69.121093-2.347656c154.238281-10.453126 287.570313-119.679688 324.050781-265.8125 0-.851563.214844-1.707032.214844-2.558594.851563-18.132813-8.535156-34.773438-24.535156-43.519532zm0 0" fill="#4caf50"/><path d="m42.671875 405.453125c-23.46875 0-42.66796875-19.199219-42.66796875-42.664063 0-23.46875 19.19921875-42.667968 42.66796875-42.667968 23.464844 0 42.664063 19.199218 42.664063 42.667968 0 23.464844-19.199219 42.664063-42.664063 42.664063zm0-64c-11.734375 0-21.335937 9.601563-21.335937 21.335937 0 11.734376 9.601562 21.332032 21.335937 21.332032 11.730469 0 21.332031-9.597656 21.332031-21.332032 0-11.734374-9.601562-21.335937-21.332031-21.335937zm0 0"/><path d="m110.511719 218.574219c-.855469 0-1.707031 0-2.5625-.210938l-2.773438-.640625c-1.707031-.425781-3.199219-.640625-4.90625-1.066406l-76.160156-15.789062c-14.933594-4.480469-23.890625-16.425782-24.10546875-30.933594-.21484425-14.292969 8.53515575-26.238282 22.18749975-30.503906l417.707032-132.480469c5.757812-1.707031 11.519531 1.277343 13.4375 7.039062 1.707031 5.546875-1.277344 11.519531-7.039063 13.441407l-417.492187 132.265624c-7.039063 2.132813-7.46875 8.320313-7.46875 10.027344 0 3.839844 2.132812 8.746094 8.109374 10.453125l75.730469 15.574219c1.707031.425781 2.773438.636719 4.054688.851562 1.28125.214844 2.558593.425782 4.054687.851563 5.757813 1.496094 9.171875 7.253906 7.890625 12.800781-1.492187 5.121094-5.757812 8.320313-10.664062 8.320313zm0 0"/><path d="m113.921875 274.042969c-1.492187 0-3.199219-.429688-4.691406-1.066407-14.71875-7.46875-23.894531-21.976562-23.894531-38.1875 0-23.46875 19.203124-42.667968 42.667968-42.667968 20.265625 0 37.972656 14.507812 41.8125 34.558594 1.066406 5.761718-2.558594 11.308593-8.53125 12.589843-5.761718 1.066407-11.308594-2.5625-12.589844-8.535156-1.703124-10.027344-10.453124-17.28125-20.691406-17.28125-11.734375 0-21.332031 9.601563-21.332031 21.335937 0 8.105469 4.480469 15.359376 11.945313 18.984376 5.332031 2.5625 7.464843 8.960937 4.90625 14.292968-1.917969 3.84375-5.757813 5.976563-9.601563 5.976563zm0 0"/><path d="m185.816406 219.214844c-1.917968 0-3.839844-.425782-5.546875-1.707032-12.585937-7.894531-20.050781-21.332031-20.050781-36.054687 0-23.464844 19.199219-42.664063 42.664062-42.664063 18.988282 0 35.414063 12.371094 40.746094 30.507813 1.707032 5.542969-1.492187 11.519531-7.25 13.226563-5.761718 1.703124-11.523437-1.496094-13.226562-7.253907-2.988282-8.960937-11.09375-15.148437-20.480469-15.148437-11.734375 0-21.335937 9.601562-21.335937 21.332031 0 7.253906 3.839843 14.082031 10.027343 18.136719 4.90625 3.199218 6.613281 9.8125 3.414063 14.71875-1.921875 3.199218-5.546875 4.90625-8.960938 4.90625zm0 0"/><path d="m257.921875 164.175781c-2.34375 0-4.476563-.640625-6.398437-2.132812-10.667969-8.320313-16.851563-20.695313-16.851563-33.921875 0-23.464844 19.199219-42.667969 42.664063-42.667969 17.496093 0 33.066406 10.457031 39.46875 26.667969 2.132812 5.546875-.425782 11.734375-5.972657 13.867187-5.335937 2.132813-11.734375-.425781-13.867187-5.972656-3.199219-7.894531-10.882813-13.226563-19.628906-13.226563-11.730469 0-21.332032 9.597657-21.332032 21.332032 0 6.613281 3.199219 12.800781 8.535156 16.855468 4.691407 3.625 5.542969 10.238282 1.917969 14.933594-2.132812 2.769532-5.121093 4.265625-8.535156 4.265625zm0 0"/><path d="m117.335938 320.121094c-13.652344 0-25.386719-8.320313-30.078126-21.332032-4.695312-13.441406-.640624-27.519531 10.664063-36.265624l338.136719-252.589844c14.71875-11.304688 34.132812-12.796875 50.558594-4.265625 16.425781 8.746093 26.238281 25.601562 25.386718 44.160156 0 .640625-.214844 1.492187-.425781 2.347656-36.480469 145.917969-169.601563 255.144531-323.839844 265.386719l-69.121093 2.558594c-.425782 0-.851563 0-1.28125 0zm-6.398438-40.53125c-5.761719 4.476562-4.265625 10.238281-3.628906 11.945312.640625 1.707032 3.414062 7.039063 10.457031 7.039063l68.90625-2.347657c144.636719-9.597656 270.078125-112.210937 304.425781-249.386718.210938-8.53125-4.90625-17.492188-14.292968-22.398438-9.175782-4.90625-19.628907-3.839844-27.949219 2.347656zm0 0"/></svg>